<svg xmlns="http://www.w3.org/2000/svg" width="805" height="600"><rect width="805" height="600" x="0" y="0" fill="#FFFFFF" id="backgorund"/><g transform="translate(10,10)" id="visualization"><g><rect x="780" y="0" height="0.0020931201821667855" width="5" fill="black"><title>Guam: 13025</title></rect><rect x="780" y="5.002093120182167" height="0.008790301264014033" width="5" fill="black"><title>American Samoa: 54700</title></rect><rect x="780" y="10.01088342144618" height="0.035025091981538026" width="5" fill="black"><title>District of Columbia: 217953</title></rect><rect x="780" y="15.045908513427719" height="0.0900472354876456" width="5" fill="black"><title>Puerto Rico: 560343</title></rect><rect x="780" y="20.135955748915364" height="0.14790975513335525" width="5" fill="black"><title>Virgin Islands: 920408</title></rect><rect x="780" y="25.28386550404872" height="0.273413562655378" width="5" fill="black"><title>Wyoming: 1701389</title></rect><rect x="780" y="30.557279066704098" height="0.6568720551236993" width="5" fill="black"><title>Rhode Island: 4087562</title></rect><rect x="780" y="36.2141511218278" height="0.6587244463973434" width="5" fill="black"><title>Delaware: 4099089</title></rect><rect x="780" y="41.87287556822514" height="0.7108501293918152" width="5" fill="black"><title>Hawaii: 4423455</title></rect><rect x="780" y="47.583725697616956" height="0.8347549698650027" width="5" fill="black"><title>North Dakota: 5194486</title></rect><rect x="780" y="53.41848066748196" height="0.8826605047516978" width="5" fill="black"><title>Montana: 5492591</title></rect><rect x="780" y="59.301141172233656" height="1.062108318098268" width="5" fill="black"><title>Maine: 6609253</title></rect><rect x="780" y="65.36324949033192" height="1.0626714116198173" width="5" fill="black"><title>Idaho: 6612757</title></rect><rect x="780" y="71.42592090195174" height="1.0749948676112808" width="5" fill="black"><title>Mississippi: 6689443</title></rect><rect x="780" y="77.50091576956302" height="1.1119266675360961" width="5" fill="black"><title>Nebraska: 6919261</title></rect><rect x="780" y="83.61284243709912" height="1.5036294019686238" width="5" fill="black"><title>South Dakota: 9356736</title></rect><rect x="780" y="90.11647183906774" height="1.9517247312633685" width="5" fill="black"><title>Alabama: 12145129</title></rect><rect x="780" y="97.06819657033111" height="1.9565422020365304" width="5" fill="black"><title>New Mexico: 12175107</title></rect><rect x="780" y="104.02473877236764" height="2.1457703906157803" width="5" fill="black"><title>Alaska: 13352630</title></rect><rect x="0" y="130" height="2.274991676001491" width="5" fill="black"><title>Independent: 14156744</title></rect><rect x="780" y="111.17050916298342" height="2.310974862610749" width="5" fill="black"><title>Tennessee: 14380659</title></rect><rect x="780" y="118.48148402559417" height="2.5396226510027873" width="5" fill="black"><title>Utah: 15803481</title></rect><rect x="780" y="126.02110667659696" height="2.564193391087997" width="5" fill="black"><title>West Virginia: 15956379</title></rect><rect x="780" y="133.58530006768495" height="2.637972623329574" width="5" fill="black"><title>Kansas: 16415490</title></rect><rect x="780" y="141.22327269101453" height="2.644083248659854" width="5" fill="black"><title>Connecticut: 16453515</title></rect><rect x="780" y="148.86735593967438" height="2.6890360779628963" width="5" fill="black"><title>Oklahoma: 16733246</title></rect><rect x="780" y="156.55639201763728" height="2.72789354845537" width="5" fill="black"><title>Oregon: 16975047</title></rect><rect x="780" y="164.28428556609265" height="2.864544647161722" width="5" fill="black"><title>Arkansas: 17825395</title></rect><rect x="780" y="172.14883021325437" height="3.2189694334258547" width="5" fill="black"><title>Vermont: 20030898</title></rect><rect x="780" y="180.36779964668023" height="3.355972465583193" width="5" fill="black"><title>Massachusetts: 20883436</title></rect><rect x="780" y="188.72377211226342" height="3.8441358200215348" width="5" fill="black"><title>Indiana: 23921163</title></rect><rect x="780" y="197.56790793228495" height="4.382283527210404" width="5" fill="black"><title>Minnesota: 27269931</title></rect><rect x="780" y="206.95019145949536" height="4.650681797139157" width="5" fill="black"><title>Iowa: 28940111</title></rect><rect x="780" y="216.60087325663451" height="4.760016271341669" width="5" fill="black"><title>Missouri: 29620474</title></rect><rect x="780" y="226.36088952797618" height="4.959365519590165" width="5" fill="black"><title>Maryland: 30860978</title></rect><rect x="780" y="236.32025504756635" height="5.333996749747087" width="5" fill="black"><title>Colorado: 33192221</title></rect><rect x="780" y="246.65425179731344" height="5.56184473321423" width="5" fill="black"><title>Virginia: 34610066</title></rect><rect x="780" y="257.2160965305277" height="5.589340699147897" width="5" fill="black"><title>North Carolina: 34781167</title></rect><rect x="780" y="267.8054372296756" height="5.930384943466038" width="5" fill="black"><title>Kentucky: 36903406</title></rect><rect x="780" y="278.7358221731416" height="6.432617922333407" width="5" fill="black"><title>New Hampshire: 40028685</title></rect><rect x="780" y="290.16844009547503" height="7.005747011047845" width="5" fill="black"><title>Wisconsin: 43595134</title></rect><rect x="780" y="302.1741871065229" height="7.197190934066384" width="5" fill="black"><title>Washington: 44786445</title></rect><rect x="780" y="314.37137804058926" height="7.364261135452125" width="5" fill="black"><title>Michigan: 45826084</title></rect><rect x="780" y="326.7356391760414" height="7.408724150527576" width="5" fill="black"><title>Pennsylvania: 46102767</title></rect><rect x="780" y="339.14436332656896" height="8.007473030271512" width="5" fill="black"><title>New Jersey: 49828642</title></rect><rect x="780" y="352.1518363568405" height="8.902324252644576" width="5" fill="black"><title>Nevada: 55397093</title></rect><rect x="780" y="366.05416060948505" height="9.228806165702395" width="5" fill="black"><title>Louisiana: 57428714</title></rect><rect x="780" y="380.28296677518745" height="9.32042472780347" width="5" fill="black"><title>South Carolina: 57998835</title></rect><rect x="780" y="394.6033915029909" height="9.583033612113638" width="5" fill="black"><title>Illinois: 59632989</title></rect><rect x="780" y="409.18642511510456" height="12.638833038151517" width="5" fill="black"><title>Ohio: 78648518</title></rect><rect x="780" y="426.8252581532561" height="15.386359009364071" width="5" fill="black"><title>Arizona: 95745733</title></rect><rect x="780" y="447.21161716262014" height="15.924894646850078" width="5" fill="black"><title>Texas: 99096915</title></rect><rect x="780" y="468.1365118094702" height="18.405210404756303" width="5" fill="black"><title>New York: 114531343</title></rect><rect x="780" y="491.5417222142265" height="20.951994981836492" width="5" fill="black"><title>Georgia: 130379391</title></rect><rect x="780" y="517.493717196063" height="25.832863753939932" width="5" fill="black"><title>Florida: 160751902</title></rect><rect x="780" y="548.326580950003" height="31.673419049997165" width="5" fill="black"><title>California: 197096319</title></rect><rect x="390" y="132.50000000000006" height="119.79553661803038" width="5" fill="black"><title>Senate: 745459758</title></rect><rect x="0" y="137.2749916760015" height="128.59912312875127" width="5" fill="black"><title>Republican: 800242429</title></rect><rect x="0" y="270.87411480475276" height="179.12588519524724" width="5" fill="black"><title>Democratic: 1114658716</title></rect><rect x="390" y="257.29553661803044" height="190.2044633819695" width="5" fill="black"><title>House: 1183598131</title></rect></g><g fill="none" stroke-opacity="1"><g style="mix-blend-mode: multiply;"><path d="M5,395.7902582258899C197.5,395.7902582258899,197.5,393.29025822588983,390,393.29025822588983" stroke="#4a90e2" stroke-width="108.41948354822024"/><title>Democratic → House: 674669226</title></g><g style="mix-blend-mode: multiply;"><path d="M5,224.9816248878781C197.5,224.9816248878781,197.5,298.1880265349051,390,298.1880265349051" stroke="#d0021b" stroke-width="81.78497983374929"/><title>Republican → House: 508928905</title></g><g style="mix-blend-mode: multiply;"><path d="M5,306.22731562826624C197.5,306.22731562826624,197.5,216.94233579451702,390,216.94233579451702" stroke="#4a90e2" stroke-width="70.70640164702698"/><title>Democratic → Senate: 439989490</title></g><g style="mix-blend-mode: multiply;"><path d="M5,131.13749583800075C197.5,131.13749583800075,197.5,133.6374958380008,390,133.6374958380008" stroke="#417505" stroke-width="2.2749916760014868"/><title>Independent → Senate: 14156744</title></g><g style="mix-blend-mode: multiply;"><path d="M5,160.68206332350246C197.5,160.68206332350246,197.5,158.18206332350252,390,158.18206332350252" stroke="#d0021b" stroke-width="46.81414329500196"/><title>Republican → Senate: 291313524</title></g><g style="mix-blend-mode: multiply;"><path d="M395,300.750436716158C587.5,300.750436716158,587.5,249.82104508788015,780,249.82104508788015" stroke="#50e3c2" stroke-width="4.790102885295009"/><title>House → Virginia: 29807696</title></g><g style="mix-blend-mode: multiply;"><path d="M395,349.79040208445497C587.5,349.79040208445497,587.5,400.5694134848227,780,400.5694134848227" stroke="#50e3c2" stroke-width="7.234023260563747"/><title>House → Illinois: 45015644</title></g><g style="mix-blend-mode: multiply;"><path d="M395,432.5683177968641C587.5,432.5683177968641,587.5,565.0683177968643,780,565.0683177968643" stroke="#50e3c2" stroke-width="29.863364406271582"/><title>House → California: 185832770</title></g><g style="mix-blend-mode: multiply;"><path d="M395,315.7101729166925C587.5,315.7101729166925,587.5,306.9028280286098,780,306.9028280286098" stroke="#50e3c2" stroke-width="4.937100023958897"/><title>House → Washington: 30722425</title></g><g style="mix-blend-mode: multiply;"><path d="M395,261.24651131840653C587.5,261.24651131840653,587.5,78.21228038066413,780,78.21228038066413" stroke="#50e3c2" stroke-width="1"/><title>House → Nebraska: 4985209</title></g><g style="mix-blend-mode: multiply;"><path d="M395,387.0211240780965C587.5,387.0211240780965,587.5,480.4889755540147,780,480.4889755540147" stroke="#50e3c2" stroke-width="12.105493320423625"/><title>House → New York: 75329669</title></g><g style="mix-blend-mode: multiply;"><path d="M395,374.56844117677997C587.5,374.56844117677997,587.5,456.73657556836554,780,456.73657556836554" stroke="#50e3c2" stroke-width="12.79987248220937"/><title>House → Texas: 79650629</title></g><g style="mix-blend-mode: multiply;"><path d="M395,155.42424217394756C587.5,155.42424217394756,587.5,197.94178620162702,780,197.94178620162702" stroke="#ff7f0e" stroke-width="1"/><title>Senate → Minnesota: 4653115</title></g><g style="mix-blend-mode: multiply;"><path d="M395,281.3009705005798C587.5,281.3009705005798,587.5,191.55579778715492,780,191.55579778715492" stroke="#50e3c2" stroke-width="2.0242202902600397"/><title>House → Indiana: 12596252</title></g><g style="mix-blend-mode: multiply;"><path d="M395,395.76862677940085C587.5,395.76862677940085,587.5,509.7989611549704,780,509.7989611549704" stroke="#50e3c2" stroke-width="5.389512082185108"/><title>House → Georgia: 33537680</title></g><g style="mix-blend-mode: multiply;"><path d="M395,309.3013419995401C587.5,309.3013419995401,587.5,273.0199520103671,780,273.0199520103671" stroke="#50e3c2" stroke-width="1.4317403255491417"/><title>House → Kentucky: 8909387</title></g><g style="mix-blend-mode: multiply;"><path d="M395,366.9237025797207C587.5,366.9237025797207,587.5,440.9668148066656,780,440.9668148066656" stroke="#50e3c2" stroke-width="2.4896047119091924"/><title>House → Arizona: 15492231</title></g><g style="mix-blend-mode: multiply;"><path d="M395,294.09481985872105C587.5,294.09481985872105,587.5,229.34833311267207,780,229.34833311267207" stroke="#50e3c2" stroke-width="3.9438438697886062"/><title>House → Maryland: 24541623</title></g><g style="mix-blend-mode: multiply;"><path d="M395,334.31424163056823C587.5,334.31424163056823,587.5,343.98317195342605,780,343.98317195342605" stroke="#50e3c2" stroke-width="6.337328806828772"/><title>House → New Jersey: 39435723</title></g><g style="mix-blend-mode: multiply;"><path d="M395,321.289930901861C587.5,321.289930901861,587.5,318.62443120285235,780,318.62443120285235" stroke="#50e3c2" stroke-width="6.222415946378061"/><title>House → Michigan: 38720647</title></g><g style="mix-blend-mode: multiply;"><path d="M395,284.130344139973C587.5,284.130344139973,587.5,200.13292796523223,780,200.13292796523223" stroke="#50e3c2" stroke-width="3.6345269885262628"/><title>House → Minnesota: 22616816</title></g><g style="mix-blend-mode: multiply;"><path d="M395,135.27666252554855C587.5,135.27666252554855,587.5,59.385392594094434,780,59.385392594094434" stroke="#ff7f0e" stroke-width="1"/><title>Senate → Maine: 1048554</title></g><g style="mix-blend-mode: multiply;"><path d="M395,310.66754548675954C587.5,310.66754548675954,587.5,284.51810677103015,780,284.51810677103015" stroke="#50e3c2" stroke-width="1.3006666488897678"/><title>House → New Hampshire: 8093746</title></g><g style="mix-blend-mode: multiply;"><path d="M395,290.5995500441406C587.5,290.5995500441406,587.5,219.83754164829003,780,219.83754164829003" stroke="#50e3c2" stroke-width="3.0466957593723096"/><title>House → Missouri: 18958879</title></g><g style="mix-blend-mode: multiply;"><path d="M395,408.05000920711086C587.5,408.05000920711086,587.5,533.7399545633855,780,533.7399545633855" stroke="#50e3c2" stroke-width="19.173252773234942"/><title>House → Florida: 119310692</title></g><g style="mix-blend-mode: multiply;"><path d="M395,269.413921951774C587.5,269.413921951774,587.5,127.98597716680545,780,127.98597716680545" stroke="#50e3c2" stroke-width="1.1986458017590367"/><title>House → West Virginia: 7458894</title></g><g style="mix-blend-mode: multiply;"><path d="M395,251.39050929616764C587.5,251.39050929616764,587.5,549.2316082718658,780,549.2316082718658" stroke="#ff7f0e" stroke-width="1.8100546437256242"/><title>Senate → California: 11263549</title></g><g style="mix-blend-mode: multiply;"><path d="M395,305.8654799977855C587.5,305.8654799977855,587.5,260.08544539069555,780,260.08544539069555" stroke="#50e3c2" stroke-width="5.439983677960013"/><title>House → North Carolina: 33851753</title></g><g style="mix-blend-mode: multiply;"><path d="M395,132.5064882708142C587.5,132.5064882708142,587.5,5.006488270814165,780,5.006488270814165" stroke="#ff7f0e" stroke-width="1"/><title>Senate → American Samoa: 54700</title></g><g style="mix-blend-mode: multiply;"><path d="M395,359.54315696925147C587.5,359.54315696925147,587.5,415.68951489874144,780,415.68951489874144" stroke="#50e3c2" stroke-width="12.271486509029279"/><title>House → Ohio: 76362606</title></g><g style="mix-blend-mode: multiply;"><path d="M395,287.51190489934527C587.5,287.51190489934527,587.5,210.03657599152532,780,210.03657599152532" stroke="#50e3c2" stroke-width="3.128594530218372"/><title>House → Iowa: 19468516</title></g><g style="mix-blend-mode: multiply;"><path d="M395,279.06556908800974C587.5,279.06556908800974,587.5,182.50048084482336,780,182.50048084482336" stroke="#50e3c2" stroke-width="2.446582534880061"/><title>House → Massachusetts: 15224514</title></g><g style="mix-blend-mode: multiply;"><path d="M395,262.94374260610897C587.5,262.94374260610897,587.5,91.16480991722068,780,91.16480991722068" stroke="#50e3c2" stroke-width="1.806773306220879"/><title>House → Alabama: 11243130</title></g><g style="mix-blend-mode: multiply;"><path d="M395,159.54128904708054C587.5,159.54128904708054,587.5,226.86865035287695,780,226.86865035287695" stroke="#ff7f0e" stroke-width="1.0155216498015627"/><title>Senate → Maryland: 6319355</title></g><g style="mix-blend-mode: multiply;"><path d="M395,138.21757809752287C587.5,138.21757809752287,587.5,97.26917073871181,780,97.26917073871181" stroke="#ff7f0e" stroke-width="1"/><title>Senate → New Mexico: 2501231</title></g><g style="mix-blend-mode: multiply;"><path d="M395,136.60590440295496C587.5,136.60590440295496,587.5,77.65631704689608,780,77.65631704689608" stroke="#ff7f0e" stroke-width="1"/><title>Senate → Nebraska: 1934052</title></g><g style="mix-blend-mode: multiply;"><path d="M395,260.4847134385297C587.5,260.4847134385297,587.5,72.1396799461211,780,72.1396799461211" stroke="#50e3c2" stroke-width="1"/><title>House → Mississippi: 4495773</title></g><g style="mix-blend-mode: multiply;"><path d="M395,151.1248472505016C587.5,151.1248472505016,587.5,173.34504140689367,780,173.34504140689367" stroke="#ff7f0e" stroke-width="2.3924223872786015"/><title>Senate → Vermont: 14887488</title></g><g style="mix-blend-mode: multiply;"><path d="M395,193.66585058065098C587.5,193.66585058065098,587.5,368.4725172780962,780,368.4725172780962" stroke="#ff7f0e" stroke-width="4.836713337222198"/><title>Senate → Louisiana: 30097742</title></g><g style="mix-blend-mode: multiply;"><path d="M395,140.29150079202216C587.5,140.29150079202216,587.5,111.56675971324361,780,111.56675971324361" stroke="#ff7f0e" stroke-width="1"/><title>Senate → Tennessee: 4931550</title></g><g style="mix-blend-mode: multiply;"><path d="M395,268.2019341761184C587.5,268.2019341761184,587.5,120.40844180182087,780,120.40844180182087" stroke="#50e3c2" stroke-width="1.2253297495521658"/><title>House → Utah: 7624942</title></g><g style="mix-blend-mode: multiply;"><path d="M395,182.46217981823355C587.5,182.46217981823355,587.5,327.06778207525326,780,327.06778207525326" stroke="#ff7f0e" stroke-width="1"/><title>Senate → Pennsylvania: 4133696</title></g><g style="mix-blend-mode: multiply;"><path d="M395,327.7733580511019C587.5,327.7733580511019,587.5,330.772144150517,780,330.772144150517" stroke="#50e3c2" stroke-width="6.744438352103802"/><title>House → Pennsylvania: 41969071</title></g><g style="mix-blend-mode: multiply;"><path d="M395,133.84256263887582C587.5,133.84256263887582,587.5,42.11143405971684,780,42.11143405971684" stroke="#ff7f0e" stroke-width="1"/><title>Senate → Hawaii: 2968988</title></g><g style="mix-blend-mode: multiply;"><path d="M395,276.4584506631671C587.5,276.4584506631671,587.5,166.59155010199896,780,166.59155010199896" stroke="#50e3c2" stroke-width="1.1145602225107718"/><title>House → Arkansas: 6935649</title></g><g style="mix-blend-mode: multiply;"><path d="M395,312.27975085795873C587.5,312.27975085795873,587.5,296.2123150597685,780,296.2123150597685" stroke="#50e3c2" stroke-width="1.923744093508642"/><title>House → Wisconsin: 11971012</title></g><g style="mix-blend-mode: multiply;"><path d="M395,187.85598042646404C587.5,187.85598042646404,587.5,355.5433498424163,780,355.5433498424163" stroke="#ff7f0e" stroke-width="6.783026971151719"/><title>Senate → Nevada: 42209199</title></g><g style="mix-blend-mode: multiply;"><path d="M395,225.11352955178216C587.5,225.11352955178216,587.5,471.28637035163655,780,471.28637035163655" stroke="#ff7f0e" stroke-width="6.299717084332661"/><title>Senate → New York: 39201674</title></g><g style="mix-blend-mode: multiply;"><path d="M395,259.3510694237647C587.5,259.3510694237647,587.5,59.916446753143575,780,59.916446753143575" stroke="#50e3c2" stroke-width="1"/><title>House → Maine: 5560699</title></g><g style="mix-blend-mode: multiply;"><path d="M395,133.47898822568723C587.5,133.47898822568723,587.5,36.33916704352469,780,36.33916704352469" stroke="#ff7f0e" stroke-width="1"/><title>Senate → Delaware: 1555890</title></g><g style="mix-blend-mode: multiply;"><path d="M395,144.84694505842282C587.5,144.84694505842282,587.5,141.82109240216784,780,141.82109240216784" stroke="#ff7f0e" stroke-width="1.1956394223066262"/><title>Senate → Connecticut: 7440186</title></g><g style="mix-blend-mode: multiply;"><path d="M395,266.8300324202971C587.5,266.8300324202971,587.5,112.72224714454899,780,112.72224714454899" stroke="#50e3c2" stroke-width="1.5184737620904023"/><title>House → Tennessee: 9449109</title></g><g style="mix-blend-mode: multiply;"><path d="M395,156.55916407675002C587.5,156.55916407675002,587.5,207.71123509295575,780,207.71123509295575" stroke="#ff7f0e" stroke-width="1.5220872669207905"/><title>Senate → Iowa: 9471595</title></g><g style="mix-blend-mode: multiply;"><path d="M395,136.27424151525818C587.5,136.27424151525818,587.5,71.60218251231547,780,71.60218251231547" stroke="#ff7f0e" stroke-width="1"/><title>Senate → Mississippi: 2193670</title></g><g style="mix-blend-mode: multiply;"><path d="M395,341.79824972971556C587.5,341.79824972971556,587.5,373.0869203609473,780,373.0869203609473" stroke="#50e3c2" stroke-width="4.3920928284801715"/><title>House → Louisiana: 27330972</title></g><g style="mix-blend-mode: multiply;"><path d="M395,275.4679130743804C587.5,275.4679130743804,587.5,158.85102808856132,780,158.85102808856132" stroke="#50e3c2" stroke-width="1"/><title>House → Oregon: 5392121</title></g><g style="mix-blend-mode: multiply;"><path d="M395,183.62939482916678C587.5,183.62939482916678,587.5,339.97943543829035,780,339.97943543829035" stroke="#ff7f0e" stroke-width="1.6701442234427417"/><title>Senate → New Jersey: 10392919</title></g><g style="mix-blend-mode: multiply;"><path d="M395,132.92057228537635C587.5,132.92057228537635,587.5,25.42057228537642,780,25.42057228537642" stroke="#ff7f0e" stroke-width="1"/><title>Senate → Wyoming: 1701389</title></g><g style="mix-blend-mode: multiply;"><path d="M395,139.15690125383279C587.5,139.15690125383279,587.5,104.76308776029684,780,104.76308776029684" stroke="#ff7f0e" stroke-width="1.4766979758584113"/><title>Senate → Alaska: 9189148</title></g><g style="mix-blend-mode: multiply;"><path d="M395,257.47562602694916C587.5,257.47562602694916,587.5,31.03406171290907,780,31.03406171290907" stroke="#50e3c2" stroke-width="1"/><title>House → Rhode Island: 2241309</title></g><g style="mix-blend-mode: multiply;"><path d="M395,181.55911432448465C587.5,181.55911432448465,587.5,314.9423006351263,780,314.9423006351263" stroke="#ff7f0e" stroke-width="1.1418451890740537"/><title>Senate → Michigan: 7105437</title></g><g style="mix-blend-mode: multiply;"><path d="M395,297.21106353356294C587.5,297.21106353356294,587.5,240.50993005736592,780,240.50993005736592" stroke="#50e3c2" stroke-width="2.288643479895071"/><title>House → Colorado: 14241696</title></g><g style="mix-blend-mode: multiply;"><path d="M395,204.40004284262307C587.5,204.40004284262307,587.5,395.77789667876584,780,395.77789667876584" stroke="#ff7f0e" stroke-width="2.349010351549901"/><title>Senate → Illinois: 14617345</title></g><g style="mix-blend-mode: multiply;"><path d="M395,338.54255467472905C587.5,338.54255467472905,587.5,359.9945119687386,780,359.9945119687386" stroke="#50e3c2" stroke-width="2.1192972814928313"/><title>House → Nevada: 13187894</title></g><g style="mix-blend-mode: multiply;"><path d="M395,261.8437146639201C587.5,261.8437146639201,587.5,84.91983054998929,780,84.91983054998929" stroke="#50e3c2" stroke-width="1"/><title>House → South Dakota: 2447306</title></g><g style="mix-blend-mode: multiply;"><path d="M395,258.1812746120757C587.5,258.1812746120757,587.5,42.46685912441276,780,42.46685912441276" stroke="#50e3c2" stroke-width="1"/><title>House → Hawaii: 1454467</title></g><g style="mix-blend-mode: multiply;"><path d="M395,152.77575340949247C587.5,152.77575340949247,587.5,180.8224946120318,780,180.8224946120318" stroke="#ff7f0e" stroke-width="1"/><title>Senate → Massachusetts: 5658922</title></g><g style="mix-blend-mode: multiply;"><path d="M395,132.52839596743698C587.5,132.52839596743698,587.5,10.028395967436966,780,10.028395967436966" stroke="#ff7f0e" stroke-width="1"/><title>Senate → District of Columbia: 217953</title></g><g style="mix-blend-mode: multiply;"><path d="M395,274.1263916924889C587.5,274.1263916924889,587.5,150.6481281132771,780,150.6481281132771" stroke="#50e3c2" stroke-width="1.816527808720415"/><title>House → Oklahoma: 11303830</title></g><g style="mix-blend-mode: multiply;"><path d="M395,133.2056256853472C587.5,133.2056256853472,587.5,30.705625685347226,780,30.705625685347226" stroke="#ff7f0e" stroke-width="1"/><title>Senate → Rhode Island: 1846253</title></g><g style="mix-blend-mode: multiply;"><path d="M395,272.49390587495213C587.5,272.49390587495213,587.5,143.14313402649773,780,143.14313402649773" stroke="#50e3c2" stroke-width="1.448443826353207"/><title>House → Connecticut: 9013329</title></g><g style="mix-blend-mode: multiply;"><path d="M395,270.8914644072145C587.5,270.8914644072145,587.5,135.34505313645354,780,135.34505313645354" stroke="#50e3c2" stroke-width="1.7564391091220382"/><title>House → Kansas: 10929912</title></g><g style="mix-blend-mode: multiply;"><path d="M395,345.08384329906437C587.5,345.08384329906437,587.5,388.5138443478822,780,388.5138443478822" stroke="#50e3c2" stroke-width="2.1790943102174576"/><title>House → South Carolina: 13559997</title></g><g style="mix-blend-mode: multiply;"><path d="M395,135.7294469261519C587.5,135.7294469261519,587.5,65.73178246907449,780,65.73178246907449" stroke="#ff7f0e" stroke-width="1"/><title>Senate → Idaho: 4586590</title></g><g style="mix-blend-mode: multiply;"><path d="M395,145.8810189041974C587.5,145.8810189041974,587.5,149.30361007429565,780,149.30361007429565" stroke="#ff7f0e" stroke-width="1"/><title>Senate → Oklahoma: 5429416</title></g><g style="mix-blend-mode: multiply;"><path d="M395,171.08012226557918C587.5,171.08012226557918,587.5,281.30179780986344,780,281.30179780986344" stroke="#ff7f0e" stroke-width="5.1319512734436135"/><title>Senate → New Hampshire: 31934939</title></g><g style="mix-blend-mode: multiply;"><path d="M395,147.247962335515C587.5,147.247962335515,587.5,157.48708131433366,780,157.48708131433366" stroke="#ff7f0e" stroke-width="1.8613785933927458"/><title>Senate → Oregon: 11582926</title></g><g style="mix-blend-mode: multiply;"><path d="M395,132.59093213117154C587.5,132.59093213117154,587.5,15.09093213117152,780,15.09093213117152" stroke="#ff7f0e" stroke-width="1"/><title>Senate → Puerto Rico: 560343</title></g><g style="mix-blend-mode: multiply;"><path d="M395,143.8083585901657C587.5,143.8083585901657,587.5,134.02606682478873,780,134.02606682478873" stroke="#ff7f0e" stroke-width="1"/><title>Senate → Kansas: 5485578</title></g><g style="mix-blend-mode: multiply;"><path d="M395,142.68481803839745C587.5,142.68481803839745,587.5,126.70388047126144,780,126.70388047126144" stroke="#ff7f0e" stroke-width="1.3655475893289792"/><title>Senate → West Virginia: 8497485</title></g><g style="mix-blend-mode: multiply;"><path d="M395,149.05364384453682C587.5,149.05364384453682,587.5,165.1592777784181,780,165.1592777784181" stroke="#ff7f0e" stroke-width="1.7499844246509286"/><title>Senate → Arkansas: 10889746</title></g><g style="mix-blend-mode: multiply;"><path d="M395,220.40115992729548C587.5,220.40115992729548,587.5,448.77412824494047,780,448.77412824494047" stroke="#ff7f0e" stroke-width="3.1250221646407"/><title>Senate → Texas: 19446286</title></g><g style="mix-blend-mode: multiply;"><path d="M395,161.57172650690734C587.5,161.57172650690734,587.5,237.84293168249235,780,237.84293168249235" stroke="#ff7f0e" stroke-width="3.0453532698520274"/><title>Senate → Colorado: 18950525</title></g><g style="mix-blend-mode: multiply;"><path d="M395,134.3543142123404C587.5,134.3543142123404,587.5,47.85691877958983,780,47.85691877958983" stroke="#ff7f0e" stroke-width="1"/><title>Senate → North Dakota: 3400034</title></g><g style="mix-blend-mode: multiply;"><path d="M395,137.31647909219384C587.5,137.31647909219384,587.5,84.16801584900496,780,84.16801584900496" stroke="#ff7f0e" stroke-width="1.1103468238116725"/><title>Senate → South Dakota: 6909430</title></g><g style="mix-blend-mode: multiply;"><path d="M395,236.04462954377416C587.5,236.04462954377416,587.5,499.32296366405217,780,499.32296366405217" stroke="#ff7f0e" stroke-width="15.562482899651332"/><title>Senate → Georgia: 96841711</title></g><g style="mix-blend-mode: multiply;"><path d="M395,134.90995919900053C587.5,134.90995919900053,587.5,53.7009325721692,780,53.7009325721692" stroke="#ff7f0e" stroke-width="1"/><title>Senate → Montana: 3515265</title></g><g style="mix-blend-mode: multiply;"><path d="M395,158.1768679661951C587.5,158.1768679661951,587.5,217.4575335126192,780,217.4575335126192" stroke="#ff7f0e" stroke-width="1.7133205119693533"/><title>Senate → Missouri: 10661595</title></g><g style="mix-blend-mode: multiply;"><path d="M395,258.44232558823956C587.5,258.44232558823956,587.5,48.27429626452233,780,48.27429626452233" stroke="#50e3c2" stroke-width="1"/><title>House → North Dakota: 1794452</title></g><g style="mix-blend-mode: multiply;"><path d="M395,212.39027169624768C587.5,212.39027169624768,587.5,433.2736353019835,780,433.2736353019835" stroke="#ff7f0e" stroke-width="12.896754297454885"/><title>Senate → Arizona: 80253502</title></g><g style="mix-blend-mode: multiply;"><path d="M395,199.65487245805508C587.5,199.65487245805508,587.5,383.85363198398045,780,383.85363198398045" stroke="#ff7f0e" stroke-width="7.1413304175860315"/><title>Senate → South Carolina: 44438838</title></g><g style="mix-blend-mode: multiply;"><path d="M395,257.8600617373697C587.5,257.8600617373697,587.5,36.66852926672337,780,36.66852926672337" stroke="#50e3c2" stroke-width="1"/><title>House → Delaware: 2543199</title></g><g style="mix-blend-mode: multiply;"><path d="M395,257.29553661803044C587.5,257.29553661803044,587.5,25.557279066704123,780,25.557279066704123" stroke="#50e3c2" stroke-width="1"/><title>House → Wyoming: 0</title></g><g style="mix-blend-mode: multiply;"><path d="M395,247.15567648395233C587.5,247.15567648395233,587.5,520.8235226864155,780,520.8235226864155" stroke="#ff7f0e" stroke-width="6.659610980704996"/><title>Senate → Florida: 41441210</title></g><g style="mix-blend-mode: multiply;"><path d="M395,179.8581462748939C587.5,179.8581462748939,587.5,303.3042325615766,780,303.3042325615766" stroke="#ff7f0e" stroke-width="2.260090910107467"/><title>Senate → Washington: 14064020</title></g><g style="mix-blend-mode: multiply;"><path d="M395,163.48027406579297C587.5,163.48027406579297,587.5,247.04012272127304,780,247.04012272127304" stroke="#ff7f0e" stroke-width="1"/><title>Senate → Virginia: 4802370</title></g><g style="mix-blend-mode: multiply;"><path d="M395,265.7362593318732C587.5,265.7362593318732,587.5,105.83597295560475,780,105.83597295560475" stroke="#50e3c2" stroke-width="1"/><title>House → Alaska: 4163482</title></g><g style="mix-blend-mode: multiply;"><path d="M395,258.7453883388877C587.5,258.7453883388877,587.5,54.14226282454506,780,54.14226282454506" stroke="#50e3c2" stroke-width="1"/><title>House → Montana: 1977326</title></g><g style="mix-blend-mode: multiply;"><path d="M395,264.62442619185697C587.5,264.62442619185697,587.5,98.24744183973007,780,98.24744183973007" stroke="#50e3c2" stroke-width="1.5545938652751337"/><title>House → New Mexico: 9673876</title></g><g style="mix-blend-mode: multiply;"><path d="M395,132.50104656009114C587.5,132.50104656009114,587.5,0.0010465600910745919,780,0.0010465600910745919" stroke="#ff7f0e" stroke-width="1"/><title>Senate → Guam: 13025</title></g><g style="mix-blend-mode: multiply;"><path d="M395,154.14040613972475C587.5,154.14040613972475,587.5,189.63372987714416,780,189.63372987714416" stroke="#ff7f0e" stroke-width="1.8199155297614813"/><title>Senate → Indiana: 11324911</title></g><g style="mix-blend-mode: multiply;"><path d="M395,141.34489779300765C587.5,141.34489779300765,587.5,119.13863047631948,780,119.13863047631948" stroke="#ff7f0e" stroke-width="1.3142929014506106"/><title>Senate → Utah: 8178539</title></g><g style="mix-blend-mode: multiply;"><path d="M395,259.96067488802043C587.5,259.96067488802043,587.5,66.2631181748844,780,66.2631181748844" stroke="#50e3c2" stroke-width="1"/><title>House → Idaho: 2026167</title></g><g style="mix-blend-mode: multiply;"><path d="M395,166.2648243198989C587.5,166.2648243198989,587.5,270.054759538634,780,270.054759538634" stroke="#ff7f0e" stroke-width="4.498644617916907"/><title>Senate → Kentucky: 27994019</title></g><g style="mix-blend-mode: multiply;"><path d="M395,277.4290042974961C587.5,277.4290042974961,587.5,174.9545261236066,780,174.9545261236066" stroke="#50e3c2" stroke-width="1"/><title>House → Vermont: 5143410</title></g><g style="mix-blend-mode: multiply;"><path d="M395,163.9408235003465C587.5,163.9408235003465,587.5,257.2907750411216,780,257.2907750411216" stroke="#ff7f0e" stroke-width="1"/><title>Senate → North Carolina: 929414</title></g><g style="mix-blend-mode: multiply;"><path d="M395,137.94412821662095C587.5,137.94412821662095,587.5,90.18894755158898,780,90.18894755158898" stroke="#ff7f0e" stroke-width="1"/><title>Senate → Alabama: 901999</title></g><g style="mix-blend-mode: multiply;"><path d="M395,205.75822128295914C587.5,205.75822128295914,587.5,409.37009837966565,780,409.37009837966565" stroke="#ff7f0e" stroke-width="1"/><title>Senate → Ohio: 2285912</title></g><g style="mix-blend-mode: multiply;"><path d="M395,176.18709936107055C587.5,176.18709936107055,587.5,292.7094415542446,780,292.7094415542446" stroke="#ff7f0e" stroke-width="5.082002917539194"/><title>Senate → Wisconsin: 31624122</title></g><g style="mix-blend-mode: multiply;"><path d="M395,132.70991062648199C587.5,132.70991062648199,587.5,20.209910626482028,780,20.209910626482028" stroke="#ff7f0e" stroke-width="1"/><title>Senate → Virgin Islands: 920408</title></g></g><g><text x="776" y="0.0010465600910833928" text-anchor="end"><tspan alignment-baseline="middle" x="776" style="font-family: Arial, sans-serif; font-size: 10px; fill: black; font-weight: bold;">Guam</tspan></text><text x="776" y="5.006488270814174" text-anchor="end"><tspan alignment-baseline="middle" x="776" style="font-family: Arial, sans-serif; font-size: 10px; fill: black; font-weight: bold;">American Samoa</tspan></text><text x="776" y="10.02839596743695" text-anchor="end"><tspan alignment-baseline="middle" x="776" style="font-family: Arial, sans-serif; font-size: 10px; fill: black; font-weight: bold;">District of Columbia</tspan></text><text x="776" y="15.090932131171542" text-anchor="end"><tspan alignment-baseline="middle" x="776" style="font-family: Arial, sans-serif; font-size: 10px; fill: black; font-weight: bold;">Puerto Rico</tspan></text><text x="776" y="20.209910626482042" text-anchor="end"><tspan alignment-baseline="middle" x="776" style="font-family: Arial, sans-serif; font-size: 10px; fill: black; font-weight: bold;">Virgin Islands</tspan></text><text x="776" y="25.42057228537641" text-anchor="end"><tspan alignment-baseline="middle" x="776" style="font-family: Arial, sans-serif; font-size: 10px; fill: black; font-weight: bold;">Wyoming</tspan></text><text x="776" y="30.885715094265947" text-anchor="end"><tspan alignment-baseline="middle" x="776" style="font-family: Arial, sans-serif; font-size: 10px; fill: black; font-weight: bold;">Rhode Island</tspan></text><text x="776" y="36.54351334502647" text-anchor="end"><tspan alignment-baseline="middle" x="776" style="font-family: Arial, sans-serif; font-size: 10px; fill: black; font-weight: bold;">Delaware</tspan></text><text x="776" y="42.22830063292105" text-anchor="end"><tspan alignment-baseline="middle" x="776" style="font-family: Arial, sans-serif; font-size: 10px; fill: black; font-weight: bold;">Hawaii</tspan></text><text x="776" y="48.00110318254946" text-anchor="end"><tspan alignment-baseline="middle" x="776" style="font-family: Arial, sans-serif; font-size: 10px; fill: black; font-weight: bold;">North Dakota</tspan></text><text x="776" y="53.85981091985781" text-anchor="end"><tspan alignment-baseline="middle" x="776" style="font-family: Arial, sans-serif; font-size: 10px; fill: black; font-weight: bold;">Montana</tspan></text><text x="776" y="59.83219533128279" text-anchor="end"><tspan alignment-baseline="middle" x="776" style="font-family: Arial, sans-serif; font-size: 10px; fill: black; font-weight: bold;">Maine</tspan></text><text x="776" y="65.89458519614183" text-anchor="end"><tspan alignment-baseline="middle" x="776" style="font-family: Arial, sans-serif; font-size: 10px; fill: black; font-weight: bold;">Idaho</tspan></text><text x="776" y="71.96341833575738" text-anchor="end"><tspan alignment-baseline="middle" x="776" style="font-family: Arial, sans-serif; font-size: 10px; fill: black; font-weight: bold;">Mississippi</tspan></text><text x="776" y="78.05687910333107" text-anchor="end"><tspan alignment-baseline="middle" x="776" style="font-family: Arial, sans-serif; font-size: 10px; fill: black; font-weight: bold;">Nebraska</tspan></text><text x="776" y="84.36465713808343" text-anchor="end"><tspan alignment-baseline="middle" x="776" style="font-family: Arial, sans-serif; font-size: 10px; fill: black; font-weight: bold;">South Dakota</tspan></text><text x="776" y="91.09233420469943" text-anchor="end"><tspan alignment-baseline="middle" x="776" style="font-family: Arial, sans-serif; font-size: 10px; fill: black; font-weight: bold;">Alabama</tspan></text><text x="776" y="98.04646767134938" text-anchor="end"><tspan alignment-baseline="middle" x="776" style="font-family: Arial, sans-serif; font-size: 10px; fill: black; font-weight: bold;">New Mexico</tspan></text><text x="776" y="105.09762396767553" text-anchor="end"><tspan alignment-baseline="middle" x="776" style="font-family: Arial, sans-serif; font-size: 10px; fill: black; font-weight: bold;">Alaska</tspan></text><text x="9" y="131.13749583800075" text-anchor="start"><tspan alignment-baseline="middle" x="9" style="font-family: Arial, sans-serif; font-size: 10px; fill: black; font-weight: bold;">Independent</tspan></text><text x="776" y="112.3259965942888" text-anchor="end"><tspan alignment-baseline="middle" x="776" style="font-family: Arial, sans-serif; font-size: 10px; fill: black; font-weight: bold;">Tennessee</tspan></text><text x="776" y="119.75129535109556" text-anchor="end"><tspan alignment-baseline="middle" x="776" style="font-family: Arial, sans-serif; font-size: 10px; fill: black; font-weight: bold;">Utah</tspan></text><text x="776" y="127.30320337214096" text-anchor="end"><tspan alignment-baseline="middle" x="776" style="font-family: Arial, sans-serif; font-size: 10px; fill: black; font-weight: bold;">West Virginia</tspan></text><text x="776" y="134.90428637934974" text-anchor="end"><tspan alignment-baseline="middle" x="776" style="font-family: Arial, sans-serif; font-size: 10px; fill: black; font-weight: bold;">Kansas</tspan></text><text x="776" y="142.54531431534446" text-anchor="end"><tspan alignment-baseline="middle" x="776" style="font-family: Arial, sans-serif; font-size: 10px; fill: black; font-weight: bold;">Connecticut</tspan></text><text x="776" y="150.21187397865583" text-anchor="end"><tspan alignment-baseline="middle" x="776" style="font-family: Arial, sans-serif; font-size: 10px; fill: black; font-weight: bold;">Oklahoma</tspan></text><text x="776" y="157.92033879186496" text-anchor="end"><tspan alignment-baseline="middle" x="776" style="font-family: Arial, sans-serif; font-size: 10px; fill: black; font-weight: bold;">Oregon</tspan></text><text x="776" y="165.7165578896735" text-anchor="end"><tspan alignment-baseline="middle" x="776" style="font-family: Arial, sans-serif; font-size: 10px; fill: black; font-weight: bold;">Arkansas</tspan></text><text x="776" y="173.7583149299673" text-anchor="end"><tspan alignment-baseline="middle" x="776" style="font-family: Arial, sans-serif; font-size: 10px; fill: black; font-weight: bold;">Vermont</tspan></text><text x="776" y="182.04578587947182" text-anchor="end"><tspan alignment-baseline="middle" x="776" style="font-family: Arial, sans-serif; font-size: 10px; fill: black; font-weight: bold;">Massachusetts</tspan></text><text x="776" y="190.64584002227417" text-anchor="end"><tspan alignment-baseline="middle" x="776" style="font-family: Arial, sans-serif; font-size: 10px; fill: black; font-weight: bold;">Indiana</tspan></text><text x="776" y="199.75904969589016" text-anchor="end"><tspan alignment-baseline="middle" x="776" style="font-family: Arial, sans-serif; font-size: 10px; fill: black; font-weight: bold;">Minnesota</tspan></text><text x="776" y="209.27553235806494" text-anchor="end"><tspan alignment-baseline="middle" x="776" style="font-family: Arial, sans-serif; font-size: 10px; fill: black; font-weight: bold;">Iowa</tspan></text><text x="776" y="218.98088139230535" text-anchor="end"><tspan alignment-baseline="middle" x="776" style="font-family: Arial, sans-serif; font-size: 10px; fill: black; font-weight: bold;">Missouri</tspan></text><text x="776" y="228.84057228777127" text-anchor="end"><tspan alignment-baseline="middle" x="776" style="font-family: Arial, sans-serif; font-size: 10px; fill: black; font-weight: bold;">Maryland</tspan></text><text x="776" y="238.9872534224399" text-anchor="end"><tspan alignment-baseline="middle" x="776" style="font-family: Arial, sans-serif; font-size: 10px; fill: black; font-weight: bold;">Colorado</tspan></text><text x="776" y="249.43517416392055" text-anchor="end"><tspan alignment-baseline="middle" x="776" style="font-family: Arial, sans-serif; font-size: 10px; fill: black; font-weight: bold;">Virginia</tspan></text><text x="776" y="260.01076688010164" text-anchor="end"><tspan alignment-baseline="middle" x="776" style="font-family: Arial, sans-serif; font-size: 10px; fill: black; font-weight: bold;">North Carolina</tspan></text><text x="776" y="270.7706297014086" text-anchor="end"><tspan alignment-baseline="middle" x="776" style="font-family: Arial, sans-serif; font-size: 10px; fill: black; font-weight: bold;">Kentucky</tspan></text><text x="776" y="281.95213113430833" text-anchor="end"><tspan alignment-baseline="middle" x="776" style="font-family: Arial, sans-serif; font-size: 10px; fill: black; font-weight: bold;">New Hampshire</tspan></text><text x="776" y="293.67131360099893" text-anchor="end"><tspan alignment-baseline="middle" x="776" style="font-family: Arial, sans-serif; font-size: 10px; fill: black; font-weight: bold;">Wisconsin</tspan></text><text x="776" y="305.77278257355607" text-anchor="end"><tspan alignment-baseline="middle" x="776" style="font-family: Arial, sans-serif; font-size: 10px; fill: black; font-weight: bold;">Washington</tspan></text><text x="776" y="318.0535086083153" text-anchor="end"><tspan alignment-baseline="middle" x="776" style="font-family: Arial, sans-serif; font-size: 10px; fill: black; font-weight: bold;">Michigan</tspan></text><text x="776" y="330.44000125130515" text-anchor="end"><tspan alignment-baseline="middle" x="776" style="font-family: Arial, sans-serif; font-size: 10px; fill: black; font-weight: bold;">Pennsylvania</tspan></text><text x="776" y="343.1480998417047" text-anchor="end"><tspan alignment-baseline="middle" x="776" style="font-family: Arial, sans-serif; font-size: 10px; fill: black; font-weight: bold;">New Jersey</tspan></text><text x="776" y="356.60299848316276" text-anchor="end"><tspan alignment-baseline="middle" x="776" style="font-family: Arial, sans-serif; font-size: 10px; fill: black; font-weight: bold;">Nevada</tspan></text><text x="776" y="370.66856369233625" text-anchor="end"><tspan alignment-baseline="middle" x="776" style="font-family: Arial, sans-serif; font-size: 10px; fill: black; font-weight: bold;">Louisiana</tspan></text><text x="776" y="384.9431791390892" text-anchor="end"><tspan alignment-baseline="middle" x="776" style="font-family: Arial, sans-serif; font-size: 10px; fill: black; font-weight: bold;">South Carolina</tspan></text><text x="776" y="399.39490830904776" text-anchor="end"><tspan alignment-baseline="middle" x="776" style="font-family: Arial, sans-serif; font-size: 10px; fill: black; font-weight: bold;">Illinois</tspan></text><text x="776" y="415.50584163418034" text-anchor="end"><tspan alignment-baseline="middle" x="776" style="font-family: Arial, sans-serif; font-size: 10px; fill: black; font-weight: bold;">Ohio</tspan></text><text x="776" y="434.5184376579381" text-anchor="end"><tspan alignment-baseline="middle" x="776" style="font-family: Arial, sans-serif; font-size: 10px; fill: black; font-weight: bold;">Arizona</tspan></text><text x="776" y="455.17406448604515" text-anchor="end"><tspan alignment-baseline="middle" x="776" style="font-family: Arial, sans-serif; font-size: 10px; fill: black; font-weight: bold;">Texas</tspan></text><text x="776" y="477.3391170118484" text-anchor="end"><tspan alignment-baseline="middle" x="776" style="font-family: Arial, sans-serif; font-size: 10px; fill: black; font-weight: bold;">New York</tspan></text><text x="776" y="502.01771970514477" text-anchor="end"><tspan alignment-baseline="middle" x="776" style="font-family: Arial, sans-serif; font-size: 10px; fill: black; font-weight: bold;">Georgia</tspan></text><text x="776" y="530.4101490730329" text-anchor="end"><tspan alignment-baseline="middle" x="776" style="font-family: Arial, sans-serif; font-size: 10px; fill: black; font-weight: bold;">Florida</tspan></text><text x="776" y="564.1632904750015" text-anchor="end"><tspan alignment-baseline="middle" x="776" style="font-family: Arial, sans-serif; font-size: 10px; fill: black; font-weight: bold;">California</tspan></text><text x="399" y="192.39776830901525" text-anchor="start"><tspan alignment-baseline="middle" x="399" style="font-family: Arial, sans-serif; font-size: 10px; fill: black; font-weight: bold;">Senate</tspan></text><text x="9" y="201.57455324037713" text-anchor="start"><tspan alignment-baseline="middle" x="9" style="font-family: Arial, sans-serif; font-size: 10px; fill: black; font-weight: bold;">Republican</tspan></text><text x="9" y="360.43705740237635" text-anchor="start"><tspan alignment-baseline="middle" x="9" style="font-family: Arial, sans-serif; font-size: 10px; fill: black; font-weight: bold;">Democratic</tspan></text><text x="399" y="352.3977683090152" text-anchor="start"><tspan alignment-baseline="middle" x="399" style="font-family: Arial, sans-serif; font-size: 10px; fill: black; font-weight: bold;">House</tspan></text></g><g><text x="782.5" y="-4" text-anchor="middle" style="font-family: Arial, sans-serif; font-size: 12px; fill: rgb(123, 123, 123); font-weight: bold;">state</text><text x="2.5" y="126" text-anchor="middle" style="font-family: Arial, sans-serif; font-size: 12px; fill: rgb(123, 123, 123); font-weight: bold;">party</text><text x="392.5" y="128.50000000000006" text-anchor="middle" style="font-family: Arial, sans-serif; font-size: 12px; fill: rgb(123, 123, 123); font-weight: bold;">chamber</text></g></g></svg>